<svg xmlns="http://www.w3.org/2000/svg" xmlns:xlink="http://www.w3.org/1999/xlink" width="94" zoomAndPan="magnify" viewBox="0 0 70.5 70.499999" height="94" preserveAspectRatio="xMidYMid meet" version="1.2"><defs><clipPath id="698ea1fce9"><path d="M 0 0 L 70.003906 0 L 70.003906 70.003906 L 0 70.003906 Z M 0 0 "/></clipPath><clipPath id="b856d4d0aa"><path d="M 0 9.101562 L 70.003906 9.101562 L 70.003906 60 L 0 60 Z M 0 9.101562 "/></clipPath></defs><g id="601efdae64"><g clip-rule="nonzero" clip-path="url(#698ea1fce9)"><path style=" stroke:none;fill-rule:nonzero;fill:#ffffff;fill-opacity:1;" d="M 0 0 L 70.003906 0 L 70.003906 70.003906 L 0 70.003906 Z M 0 0 "/><path style=" stroke:none;fill-rule:nonzero;fill:#ffffff;fill-opacity:1;" d="M 0 0 L 70.003906 0 L 70.003906 70.003906 L 0 70.003906 Z M 0 0 "/></g><g clip-rule="nonzero" clip-path="url(#b856d4d0aa)"><path style=" stroke:none;fill-rule:nonzero;fill:#ff0000;fill-opacity:1;" d="M 3.789062 10.847656 C 3.789062 10.847656 0 11.542969 0 21.253906 C 0 30.960938 0.21875 54.972656 1.894531 56.625 C 6.554688 61.214844 25.867188 58.019531 44.832031 58.535156 C 63.796875 59.050781 70.003906 58.359375 70.003906 52.808594 C 70.003906 47.261719 68.28125 18.824219 68.28125 14.316406 C 68.28125 9.808594 67.246094 9.117188 53.796875 9.117188 C 40.347656 9.117188 3.789062 10.847656 3.789062 10.847656 Z M 3.789062 10.847656 "/></g><path style=" stroke:none;fill-rule:nonzero;fill:#ffffff;fill-opacity:1;" d="M 22.039062 23.019531 C 22.039062 23.019531 22.816406 43.042969 23.332031 44.605469 C 23.851562 46.164062 24.109375 47.984375 30.832031 45.90625 C 37.558594 43.824219 48.160156 36.023438 48.160156 36.023438 C 48.160156 36.023438 51.523438 33.679688 48.160156 31.859375 C 44.800781 30.039062 25.144531 21.71875 25.144531 21.71875 C 25.144531 21.71875 21.933594 20.410156 22.039062 23.019531 Z M 22.039062 23.019531 "/></g></svg>