<svg xmlns="http://www.w3.org/2000/svg" xmlns:xlink="http://www.w3.org/1999/xlink" width="94" zoomAndPan="magnify" viewBox="0 0 70.5 70.499999" height="94" preserveAspectRatio="xMidYMid meet" version="1.2"><defs><clipPath id="ee748bc8d4"><path d="M 0 0 L 70.003906 0 L 70.003906 70.003906 L 0 70.003906 Z M 0 0 "/></clipPath><clipPath id="908365b461"><path d="M 1.84375 0 L 68.125 0 L 68.125 70 L 1.84375 70 Z M 1.84375 0 "/></clipPath></defs><g id="2b1c075c03"><g clip-rule="nonzero" clip-path="url(#ee748bc8d4)"><path style=" stroke:none;fill-rule:nonzero;fill:#ffffff;fill-opacity:0;" d="M 0 0 L 70.003906 0 L 70.003906 70.003906 L 0 70.003906 Z M 0 0 "/><path style=" stroke:none;fill-rule:nonzero;fill:#ffffff;fill-opacity:0;" d="M 0 0 L 70.003906 0 L 70.003906 70.003906 L 0 70.003906 Z M 0 0 "/></g><g clip-rule="nonzero" clip-path="url(#908365b461)"><path style=" stroke:none;fill-rule:nonzero;fill:#8c52ff;fill-opacity:1;" d="M 16.574219 69.96875 C 16.085938 69.96875 15.617188 69.878906 15.164062 69.691406 C 14.714844 69.503906 14.316406 69.238281 13.96875 68.890625 C 13.625 68.546875 13.359375 68.148438 13.171875 67.699219 C 12.984375 67.246094 12.890625 66.777344 12.890625 66.289062 L 12.890625 55.242188 L 9.210938 55.242188 C 8.726562 55.242188 8.246094 55.195312 7.773438 55.101562 C 7.300781 55.003906 6.839844 54.867188 6.390625 54.679688 C 5.945312 54.496094 5.519531 54.269531 5.117188 54 C 4.714844 53.730469 4.34375 53.425781 4.003906 53.085938 C 3.660156 52.742188 3.355469 52.371094 3.085938 51.96875 C 2.816406 51.566406 2.589844 51.140625 2.40625 50.695312 C 2.222656 50.25 2.082031 49.789062 1.988281 49.3125 C 1.894531 48.839844 1.84375 48.359375 1.84375 47.878906 L 1.84375 7.371094 C 1.84375 6.890625 1.894531 6.410156 1.988281 5.9375 C 2.082031 5.460938 2.222656 5 2.40625 4.554688 C 2.589844 4.109375 2.816406 3.683594 3.085938 3.28125 C 3.355469 2.878906 3.660156 2.507812 4.003906 2.164062 C 4.34375 1.824219 4.714844 1.519531 5.117188 1.25 C 5.519531 0.980469 5.945312 0.753906 6.390625 0.570312 C 6.839844 0.382812 7.300781 0.246094 7.773438 0.148438 C 8.246094 0.0546875 8.726562 0.0078125 9.210938 0.0078125 L 60.761719 0.0078125 C 61.246094 0.0078125 61.722656 0.0546875 62.199219 0.148438 C 62.671875 0.246094 63.132812 0.382812 63.578125 0.570312 C 64.027344 0.753906 64.449219 0.980469 64.851562 1.25 C 65.253906 1.519531 65.625 1.824219 65.96875 2.164062 C 66.308594 2.507812 66.617188 2.878906 66.882812 3.28125 C 67.152344 3.683594 67.378906 4.109375 67.566406 4.554688 C 67.75 5 67.890625 5.460938 67.984375 5.9375 C 68.078125 6.410156 68.125 6.890625 68.125 7.371094 L 68.125 38.984375 C 68.128906 39.960938 67.941406 40.902344 67.570312 41.804688 C 67.195312 42.707031 66.664062 43.503906 65.972656 44.195312 L 57.078125 53.085938 C 56.390625 53.78125 55.59375 54.3125 54.6875 54.6875 C 53.785156 55.0625 52.84375 55.246094 51.863281 55.242188 L 32.828125 55.242188 L 19.179688 68.890625 C 18.457031 69.609375 17.589844 69.96875 16.574219 69.96875 Z M 9.210938 7.371094 L 9.210938 47.878906 L 16.574219 47.878906 C 17.0625 47.878906 17.53125 47.96875 17.984375 48.15625 C 18.433594 48.34375 18.832031 48.609375 19.179688 48.957031 C 19.523438 49.300781 19.789062 49.699219 19.976562 50.148438 C 20.164062 50.601562 20.257812 51.070312 20.257812 51.558594 L 20.257812 57.398438 L 28.699219 48.957031 C 29.417969 48.238281 30.285156 47.878906 31.304688 47.878906 L 51.863281 47.878906 L 60.761719 38.988281 L 60.761719 7.371094 Z M 9.210938 7.371094 "/></g><path style=" stroke:none;fill-rule:nonzero;fill:#8c52ff;fill-opacity:1;" d="M 49.714844 36.832031 C 49.226562 36.832031 48.757812 36.738281 48.304688 36.550781 C 47.855469 36.363281 47.457031 36.097656 47.109375 35.753906 C 46.765625 35.40625 46.5 35.007812 46.3125 34.558594 C 46.125 34.105469 46.03125 33.636719 46.03125 33.148438 L 46.03125 18.417969 C 46.03125 17.929688 46.125 17.460938 46.3125 17.011719 C 46.5 16.558594 46.765625 16.160156 47.109375 15.816406 C 47.457031 15.46875 47.855469 15.203125 48.304688 15.015625 C 48.757812 14.832031 49.226562 14.738281 49.714844 14.738281 C 50.203125 14.738281 50.671875 14.832031 51.125 15.015625 C 51.574219 15.203125 51.972656 15.46875 52.316406 15.816406 C 52.664062 16.160156 52.929688 16.558594 53.117188 17.011719 C 53.304688 17.460938 53.398438 17.929688 53.398438 18.417969 L 53.398438 33.148438 C 53.398438 33.636719 53.304688 34.105469 53.117188 34.558594 C 52.929688 35.007812 52.664062 35.40625 52.316406 35.753906 C 51.972656 36.097656 51.574219 36.363281 51.125 36.550781 C 50.671875 36.738281 50.203125 36.832031 49.714844 36.832031 Z M 49.714844 36.832031 "/><path style=" stroke:none;fill-rule:nonzero;fill:#8c52ff;fill-opacity:1;" d="M 34.984375 36.832031 C 34.496094 36.832031 34.027344 36.738281 33.578125 36.550781 C 33.125 36.363281 32.726562 36.097656 32.382812 35.753906 C 32.035156 35.40625 31.769531 35.007812 31.582031 34.558594 C 31.398438 34.105469 31.304688 33.636719 31.304688 33.148438 L 31.304688 18.417969 C 31.304688 17.929688 31.398438 17.460938 31.582031 17.011719 C 31.769531 16.558594 32.035156 16.160156 32.382812 15.816406 C 32.726562 15.46875 33.125 15.203125 33.578125 15.015625 C 34.027344 14.832031 34.496094 14.738281 34.984375 14.738281 C 35.472656 14.738281 35.945312 14.832031 36.394531 15.015625 C 36.847656 15.203125 37.242188 15.46875 37.589844 15.816406 C 37.933594 16.160156 38.199219 16.558594 38.386719 17.011719 C 38.574219 17.460938 38.667969 17.929688 38.667969 18.417969 L 38.667969 33.148438 C 38.667969 33.636719 38.574219 34.105469 38.386719 34.558594 C 38.199219 35.007812 37.933594 35.40625 37.589844 35.753906 C 37.242188 36.097656 36.847656 36.363281 36.394531 36.550781 C 35.945312 36.738281 35.472656 36.832031 34.984375 36.832031 Z M 34.984375 36.832031 "/></g></svg>
