<svg xmlns="http://www.w3.org/2000/svg" xmlns:xlink="http://www.w3.org/1999/xlink" width="94" zoomAndPan="magnify" viewBox="0 0 70.5 70.499999" height="94" preserveAspectRatio="xMidYMid meet" version="1.2"><defs><clipPath id="6b630c7ec5"><path d="M 0 0 L 70.003906 0 L 70.003906 70.003906 L 0 70.003906 Z M 0 0 "/></clipPath></defs><g id="2b342fc04a"><path style=" stroke:none;fill-rule:nonzero;fill:#231f20;fill-opacity:1;" d="M 44.40625 7.746094 L 39.335938 7.746094 L 39.335938 45.257812 C 39.335938 51.859375 33.960938 57.230469 27.359375 57.230469 C 20.753906 57.230469 15.382812 51.859375 15.382812 45.257812 C 15.382812 38.65625 20.757812 33.285156 27.359375 33.285156 L 29.871094 33.285156 L 29.871094 28.261719 L 27.359375 28.261719 C 17.984375 28.261719 10.359375 35.886719 10.359375 45.257812 C 10.359375 54.632812 17.984375 62.253906 27.359375 62.253906 C 36.734375 62.253906 44.359375 54.632812 44.359375 45.257812 L 44.359375 21.507812 C 44.359375 21.078125 44.605469 20.683594 44.996094 20.492188 C 45.382812 20.304688 45.84375 20.351562 46.183594 20.621094 C 49.355469 23.105469 53.144531 24.417969 57.136719 24.417969 L 59.648438 24.417969 L 59.648438 19.394531 L 57.136719 19.394531 C 50.46875 19.394531 44.980469 14.265625 44.40625 7.746094 Z M 44.40625 7.746094 "/><g clip-rule="nonzero" clip-path="url(#6b630c7ec5)"><path style=" stroke:none;fill-rule:nonzero;fill:#231f20;fill-opacity:1;" d="M 63.230469 0 L 6.773438 0 C 3.039062 0 0 3.039062 0 6.773438 L 0 63.230469 C 0 66.964844 3.039062 70.003906 6.773438 70.003906 L 63.230469 70.003906 C 66.964844 70.003906 70.003906 66.964844 70.003906 63.230469 L 70.003906 6.773438 C 70.003906 3.039062 66.964844 0 63.230469 0 Z M 61.902344 25.546875 C 61.902344 26.171875 61.398438 26.675781 60.773438 26.675781 L 57.132812 26.675781 C 53.375 26.675781 49.777344 25.644531 46.617188 23.675781 L 46.617188 45.257812 C 46.617188 55.875 37.976562 64.515625 27.359375 64.515625 C 16.738281 64.515625 8.097656 55.875 8.097656 45.257812 C 8.097656 34.640625 16.738281 26.003906 27.359375 26.003906 L 31 26.003906 C 31.625 26.003906 32.128906 26.507812 32.128906 27.132812 L 32.128906 34.414062 C 32.128906 35.039062 31.625 35.542969 31 35.542969 L 27.359375 35.542969 C 22 35.542969 17.640625 39.902344 17.640625 45.257812 C 17.640625 50.617188 22 54.972656 27.359375 54.972656 C 32.714844 54.972656 37.074219 50.613281 37.074219 45.257812 L 37.074219 6.617188 C 37.074219 5.996094 37.578125 5.488281 38.203125 5.488281 L 45.484375 5.488281 C 46.109375 5.488281 46.613281 5.996094 46.613281 6.617188 C 46.613281 12.417969 51.332031 17.136719 57.132812 17.136719 L 60.773438 17.136719 C 61.398438 17.136719 61.902344 17.640625 61.902344 18.265625 Z M 61.902344 25.546875 "/></g></g></svg>
