<svg xmlns="http://www.w3.org/2000/svg" xmlns:xlink="http://www.w3.org/1999/xlink" width="94" zoomAndPan="magnify" viewBox="0 0 70.5 70.499999" height="94" preserveAspectRatio="xMidYMid meet" version="1.2"><defs><clipPath id="fbdaacc50e"><path d="M 0 0 L 70.003906 0 L 70.003906 70.003906 L 0 70.003906 Z M 0 0 "/></clipPath><clipPath id="3df52215ec"><path d="M 37 5.726562 L 68 5.726562 L 68 64.558594 L 37 64.558594 Z M 37 5.726562 "/></clipPath><clipPath id="a612edf887"><path d="M 1 5.726562 L 32 5.726562 L 32 64.558594 L 1 64.558594 Z M 1 5.726562 "/></clipPath></defs><g id="e181c5a5de"><g clip-rule="nonzero" clip-path="url(#fbdaacc50e)"><path style=" stroke:none;fill-rule:nonzero;fill:#ffffff;fill-opacity:0;" d="M 0 0 L 70.003906 0 L 70.003906 70.003906 L 0 70.003906 Z M 0 0 "/><path style=" stroke:none;fill-rule:nonzero;fill:#ffffff;fill-opacity:0;" d="M 0 0 L 70.003906 0 L 70.003906 70.003906 L 0 70.003906 Z M 0 0 "/></g><path style=" stroke:none;fill-rule:nonzero;fill:#5170ff;fill-opacity:1;" d="M 31.109375 35.078125 C 31.109375 35.503906 31.066406 35.925781 30.984375 36.34375 C 30.902344 36.761719 30.777344 37.167969 30.617188 37.5625 C 30.453125 37.957031 30.253906 38.328125 30.015625 38.683594 C 29.78125 39.039062 29.511719 39.363281 29.210938 39.667969 C 28.910156 39.96875 28.582031 40.238281 28.226562 40.472656 C 27.871094 40.710938 27.5 40.910156 27.105469 41.074219 C 26.710938 41.234375 26.304688 41.359375 25.886719 41.441406 C 25.472656 41.523438 25.050781 41.566406 24.625 41.566406 C 24.195312 41.566406 23.777344 41.523438 23.359375 41.441406 C 22.941406 41.359375 22.535156 41.234375 22.140625 41.074219 C 21.746094 40.910156 21.375 40.710938 21.019531 40.472656 C 20.664062 40.238281 20.335938 39.96875 20.035156 39.667969 C 19.734375 39.363281 19.464844 39.039062 19.230469 38.683594 C 18.992188 38.328125 18.792969 37.957031 18.628906 37.5625 C 18.46875 37.167969 18.34375 36.761719 18.261719 36.34375 C 18.179688 35.925781 18.136719 35.503906 18.136719 35.078125 C 18.136719 34.652344 18.179688 34.230469 18.261719 33.8125 C 18.34375 33.394531 18.46875 32.992188 18.628906 32.597656 C 18.792969 32.203125 18.992188 31.828125 19.230469 31.476562 C 19.464844 31.121094 19.734375 30.792969 20.035156 30.492188 C 20.335938 30.191406 20.664062 29.921875 21.019531 29.6875 C 21.375 29.449219 21.746094 29.25 22.140625 29.085938 C 22.535156 28.921875 22.941406 28.800781 23.359375 28.71875 C 23.777344 28.632812 24.195312 28.59375 24.625 28.59375 C 25.050781 28.59375 25.472656 28.632812 25.886719 28.71875 C 26.304688 28.800781 26.710938 28.921875 27.105469 29.085938 C 27.5 29.25 27.871094 29.449219 28.226562 29.6875 C 28.582031 29.921875 28.910156 30.191406 29.210938 30.492188 C 29.511719 30.792969 29.78125 31.121094 30.015625 31.476562 C 30.253906 31.828125 30.453125 32.203125 30.617188 32.597656 C 30.777344 32.992188 30.902344 33.394531 30.984375 33.8125 C 31.066406 34.230469 31.109375 34.652344 31.109375 35.078125 Z M 31.109375 35.078125 "/><path style=" stroke:none;fill-rule:nonzero;fill:#5170ff;fill-opacity:1;" d="M 50.570312 35.078125 C 50.570312 35.503906 50.527344 35.925781 50.445312 36.34375 C 50.363281 36.761719 50.238281 37.167969 50.074219 37.5625 C 49.914062 37.957031 49.714844 38.328125 49.476562 38.683594 C 49.238281 39.039062 48.972656 39.363281 48.667969 39.667969 C 48.367188 39.96875 48.039062 40.238281 47.6875 40.472656 C 47.332031 40.710938 46.957031 40.910156 46.566406 41.074219 C 46.171875 41.234375 45.765625 41.359375 45.347656 41.441406 C 44.929688 41.523438 44.507812 41.566406 44.082031 41.566406 C 43.65625 41.566406 43.234375 41.523438 42.816406 41.441406 C 42.398438 41.359375 41.996094 41.234375 41.601562 41.074219 C 41.207031 40.910156 40.832031 40.710938 40.480469 40.472656 C 40.125 40.238281 39.796875 39.96875 39.496094 39.667969 C 39.195312 39.363281 38.925781 39.039062 38.691406 38.683594 C 38.453125 38.328125 38.253906 37.957031 38.089844 37.5625 C 37.925781 37.167969 37.804688 36.761719 37.722656 36.34375 C 37.636719 35.925781 37.597656 35.503906 37.597656 35.078125 C 37.597656 34.652344 37.636719 34.230469 37.722656 33.8125 C 37.804688 33.394531 37.925781 32.992188 38.089844 32.597656 C 38.253906 32.203125 38.453125 31.828125 38.691406 31.476562 C 38.925781 31.121094 39.195312 30.792969 39.496094 30.492188 C 39.796875 30.191406 40.125 29.921875 40.480469 29.6875 C 40.832031 29.449219 41.207031 29.25 41.601562 29.085938 C 41.996094 28.921875 42.398438 28.800781 42.816406 28.71875 C 43.234375 28.632812 43.65625 28.59375 44.082031 28.59375 C 44.507812 28.59375 44.929688 28.632812 45.347656 28.71875 C 45.765625 28.800781 46.171875 28.921875 46.566406 29.085938 C 46.957031 29.25 47.332031 29.449219 47.6875 29.6875 C 48.039062 29.921875 48.367188 30.191406 48.667969 30.492188 C 48.972656 30.792969 49.238281 31.121094 49.476562 31.476562 C 49.714844 31.828125 49.914062 32.203125 50.074219 32.597656 C 50.238281 32.992188 50.363281 33.394531 50.445312 33.8125 C 50.527344 34.230469 50.570312 34.652344 50.570312 35.078125 Z M 50.570312 35.078125 "/><path style=" stroke:none;fill-rule:nonzero;fill:#5170ff;fill-opacity:1;" d="M 48.949219 23.726562 C 48.644531 23.730469 48.347656 23.6875 48.054688 23.601562 C 37.296875 20.523438 31.40625 20.523438 20.648438 23.601562 C 20.238281 23.722656 19.816406 23.757812 19.390625 23.707031 C 18.960938 23.65625 18.558594 23.527344 18.183594 23.320312 C 17.808594 23.113281 17.484375 22.839844 17.21875 22.503906 C 16.949219 22.164062 16.757812 21.789062 16.640625 21.375 C 16.519531 20.964844 16.488281 20.542969 16.535156 20.117188 C 16.585938 19.6875 16.714844 19.285156 16.921875 18.910156 C 17.132812 18.535156 17.402344 18.210938 17.742188 17.945312 C 18.078125 17.675781 18.453125 17.484375 18.867188 17.367188 C 30.734375 13.972656 37.96875 13.972656 49.839844 17.367188 C 50.214844 17.472656 50.5625 17.644531 50.875 17.875 C 51.191406 18.109375 51.453125 18.390625 51.667969 18.714844 C 51.882812 19.042969 52.03125 19.398438 52.113281 19.78125 C 52.199219 20.164062 52.214844 20.546875 52.160156 20.933594 C 52.105469 21.324219 51.984375 21.6875 51.800781 22.03125 C 51.613281 22.375 51.371094 22.675781 51.078125 22.933594 C 50.78125 23.1875 50.449219 23.386719 50.085938 23.523438 C 49.71875 23.660156 49.339844 23.726562 48.949219 23.726562 Z M 48.949219 23.726562 "/><path style=" stroke:none;fill-rule:nonzero;fill:#5170ff;fill-opacity:1;" d="M 34.351562 55.363281 C 28.527344 55.316406 22.828125 54.460938 17.246094 52.792969 C 16.832031 52.675781 16.457031 52.480469 16.121094 52.214844 C 15.785156 51.945312 15.511719 51.625 15.300781 51.25 C 15.09375 50.871094 14.964844 50.472656 14.914062 50.042969 C 14.867188 49.617188 14.902344 49.195312 15.019531 48.78125 C 15.136719 48.367188 15.332031 47.992188 15.597656 47.65625 C 15.867188 47.320312 16.1875 47.046875 16.5625 46.839844 C 16.941406 46.628906 17.339844 46.5 17.769531 46.453125 C 18.195312 46.402344 18.617188 46.4375 19.03125 46.554688 C 24.023438 48.089844 29.132812 48.859375 34.355469 48.859375 C 39.578125 48.859375 44.6875 48.089844 49.679688 46.554688 C 50.09375 46.4375 50.511719 46.402344 50.941406 46.453125 C 51.367188 46.5 51.769531 46.628906 52.144531 46.839844 C 52.519531 47.046875 52.84375 47.320312 53.109375 47.65625 C 53.378906 47.996094 53.570312 48.371094 53.6875 48.78125 C 53.808594 49.195312 53.839844 49.617188 53.792969 50.042969 C 53.742188 50.472656 53.613281 50.871094 53.40625 51.25 C 53.199219 51.625 52.925781 51.945312 52.589844 52.214844 C 52.25 52.480469 51.875 52.675781 51.464844 52.792969 C 45.882812 54.460938 40.179688 55.316406 34.351562 55.363281 Z M 34.351562 55.363281 "/><g clip-rule="nonzero" clip-path="url(#3df52215ec)"><path style=" stroke:none;fill-rule:nonzero;fill:#5170ff;fill-opacity:1;" d="M 52.191406 64.269531 C 48.015625 64.269531 42.460938 55.367188 42.460938 51.296875 C 42.460938 50.867188 42.542969 50.453125 42.707031 50.054688 C 42.871094 49.65625 43.105469 49.308594 43.410156 49.003906 C 43.714844 48.699219 44.066406 48.464844 44.464844 48.300781 C 44.859375 48.136719 45.273438 48.054688 45.703125 48.054688 C 46.136719 48.054688 46.546875 48.136719 46.945312 48.300781 C 47.34375 48.464844 47.695312 48.699219 48 49.003906 C 48.300781 49.308594 48.535156 49.65625 48.699219 50.054688 C 48.867188 50.453125 48.949219 50.867188 48.949219 51.296875 C 48.949219 52.648438 51.398438 56.460938 52.824219 57.722656 C 55.59375 57.226562 58.734375 53.59375 60.578125 49.972656 C 62.386719 45.214844 61.691406 32.714844 55.976562 16.097656 C 52.941406 14.269531 49.671875 13.128906 46.160156 12.667969 L 43.851562 18.445312 C 43.691406 18.84375 43.460938 19.199219 43.160156 19.507812 C 42.859375 19.816406 42.511719 20.054688 42.117188 20.222656 C 41.722656 20.390625 41.308594 20.480469 40.878906 20.484375 C 40.449219 20.488281 40.035156 20.414062 39.636719 20.253906 C 39.234375 20.09375 38.882812 19.863281 38.574219 19.5625 C 38.265625 19.261719 38.027344 18.914062 37.859375 18.519531 C 37.6875 18.125 37.601562 17.710938 37.597656 17.28125 C 37.589844 16.851562 37.667969 16.4375 37.828125 16.035156 L 41.070312 7.929688 C 41.203125 7.601562 41.382812 7.300781 41.613281 7.03125 C 41.839844 6.761719 42.105469 6.535156 42.410156 6.355469 C 42.710938 6.171875 43.035156 6.042969 43.382812 5.964844 C 43.726562 5.890625 44.074219 5.871094 44.425781 5.90625 C 47.300781 6.09375 50.105469 6.648438 52.835938 7.570312 C 55.5625 8.488281 58.128906 9.746094 60.53125 11.335938 C 61.101562 11.734375 61.503906 12.261719 61.738281 12.917969 C 67.617188 29.582031 69.507812 45.117188 66.554688 52.5 C 66.519531 52.582031 66.484375 52.664062 66.445312 52.746094 C 63.65625 58.316406 58.449219 64.269531 52.191406 64.269531 Z M 53.191406 58.007812 Z M 53.191406 58.007812 "/></g><g clip-rule="nonzero" clip-path="url(#a612edf887)"><path style=" stroke:none;fill-rule:nonzero;fill:#5170ff;fill-opacity:1;" d="M 17.058594 64.269531 C 11 64.269531 5.988281 58.289062 3.320312 52.691406 C 3.285156 52.613281 3.25 52.527344 3.21875 52.449219 C 0.417969 45.097656 2.21875 29.597656 7.804688 12.964844 C 8.023438 12.3125 8.410156 11.785156 8.964844 11.378906 C 11.21875 9.785156 13.644531 8.523438 16.242188 7.59375 C 18.839844 6.664062 21.515625 6.101562 24.269531 5.910156 C 24.621094 5.871094 24.972656 5.890625 25.316406 5.964844 C 25.664062 6.039062 25.988281 6.167969 26.292969 6.351562 C 26.597656 6.535156 26.863281 6.761719 27.09375 7.03125 C 27.320312 7.300781 27.503906 7.597656 27.632812 7.929688 L 30.878906 16.035156 C 31.039062 16.4375 31.113281 16.851562 31.109375 17.28125 C 31.105469 17.710938 31.015625 18.125 30.847656 18.519531 C 30.679688 18.914062 30.441406 19.261719 30.132812 19.5625 C 29.824219 19.863281 29.46875 20.09375 29.070312 20.253906 C 28.671875 20.414062 28.257812 20.488281 27.828125 20.484375 C 27.398438 20.480469 26.984375 20.390625 26.589844 20.222656 C 26.195312 20.054688 25.847656 19.816406 25.546875 19.507812 C 25.246094 19.199219 25.015625 18.84375 24.855469 18.445312 L 22.550781 12.683594 C 19.328125 13.152344 16.351562 14.269531 13.621094 16.042969 C 8.160156 32.699219 7.503906 45.246094 9.242188 50.027344 C 10.953125 53.5625 13.820312 57.101562 16.347656 57.695312 C 18.007812 55.839844 19.144531 53.707031 19.757812 51.296875 C 19.757812 50.867188 19.839844 50.453125 20.003906 50.054688 C 20.167969 49.65625 20.402344 49.308594 20.707031 49.003906 C 21.011719 48.699219 21.363281 48.464844 21.761719 48.300781 C 22.15625 48.136719 22.570312 48.054688 23 48.054688 C 23.429688 48.054688 23.84375 48.136719 24.242188 48.300781 C 24.640625 48.464844 24.992188 48.699219 25.292969 49.003906 C 25.597656 49.308594 25.832031 49.65625 25.996094 50.054688 C 26.164062 50.453125 26.246094 50.867188 26.246094 51.296875 C 25.957031 54.15625 24.988281 56.765625 23.34375 59.121094 C 20.0625 64.269531 17.878906 64.269531 17.058594 64.269531 Z M 17.058594 64.269531 "/></g></g></svg>
