<svg xmlns="http://www.w3.org/2000/svg" xmlns:xlink="http://www.w3.org/1999/xlink" width="94" zoomAndPan="magnify" viewBox="0 0 70.5 70.499999" height="94" preserveAspectRatio="xMidYMid meet" version="1.2"><defs><clipPath id="d8c5ad8df2"><path d="M 0 0 L 70.003906 0 L 70.003906 70.003906 L 0 70.003906 Z M 0 0 "/></clipPath><clipPath id="ab8a62e249"><path d="M 0 0 L 70.003906 0 L 70.003906 70.003906 L 0 70.003906 Z M 0 0 "/></clipPath><clipPath id="406a3bbb07"><path d="M 70.003906 35 C 70.003906 36.148438 69.949219 37.292969 69.835938 38.433594 C 69.722656 39.574219 69.554688 40.707031 69.332031 41.832031 C 69.105469 42.953125 68.828125 44.066406 68.496094 45.164062 C 68.164062 46.257812 67.777344 47.335938 67.339844 48.394531 C 66.902344 49.457031 66.410156 50.492188 65.871094 51.5 C 65.332031 52.511719 64.742188 53.496094 64.105469 54.449219 C 63.46875 55.402344 62.785156 56.320312 62.058594 57.207031 C 61.332031 58.09375 60.5625 58.941406 59.75 59.75 C 58.941406 60.5625 58.09375 61.332031 57.207031 62.058594 C 56.320312 62.785156 55.402344 63.46875 54.449219 64.105469 C 53.496094 64.742188 52.511719 65.332031 51.5 65.871094 C 50.492188 66.410156 49.457031 66.902344 48.394531 67.339844 C 47.335938 67.777344 46.257812 68.164062 45.164062 68.496094 C 44.066406 68.828125 42.953125 69.105469 41.832031 69.332031 C 40.707031 69.554688 39.574219 69.722656 38.433594 69.835938 C 37.292969 69.949219 36.148438 70.003906 35 70.003906 C 33.855469 70.003906 32.710938 69.949219 31.570312 69.835938 C 30.429688 69.722656 29.296875 69.554688 28.171875 69.332031 C 27.050781 69.105469 25.9375 68.828125 24.839844 68.496094 C 23.746094 68.164062 22.667969 67.777344 21.605469 67.339844 C 20.546875 66.902344 19.511719 66.410156 18.503906 65.871094 C 17.492188 65.332031 16.507812 64.742188 15.554688 64.105469 C 14.601562 63.46875 13.683594 62.785156 12.796875 62.058594 C 11.910156 61.332031 11.0625 60.5625 10.25 59.75 C 9.441406 58.941406 8.671875 58.09375 7.945312 57.207031 C 7.21875 56.320312 6.535156 55.402344 5.898438 54.449219 C 5.261719 53.496094 4.671875 52.511719 4.132812 51.5 C 3.59375 50.492188 3.101562 49.457031 2.664062 48.394531 C 2.226562 47.335938 1.839844 46.257812 1.507812 45.164062 C 1.175781 44.066406 0.894531 42.953125 0.671875 41.832031 C 0.449219 40.707031 0.28125 39.574219 0.167969 38.433594 C 0.0546875 37.292969 0 36.148438 0 35 C 0 33.855469 0.0546875 32.710938 0.167969 31.570312 C 0.28125 30.429688 0.449219 29.296875 0.671875 28.171875 C 0.894531 27.050781 1.175781 25.9375 1.507812 24.839844 C 1.839844 23.746094 2.226562 22.667969 2.664062 21.605469 C 3.101562 20.546875 3.59375 19.511719 4.132812 18.503906 C 4.671875 17.492188 5.261719 16.507812 5.898438 15.554688 C 6.535156 14.601562 7.21875 13.683594 7.945312 12.796875 C 8.671875 11.910156 9.441406 11.0625 10.25 10.25 C 11.0625 9.441406 11.910156 8.671875 12.796875 7.945312 C 13.683594 7.21875 14.601562 6.535156 15.554688 5.898438 C 16.507812 5.261719 17.492188 4.671875 18.503906 4.132812 C 19.511719 3.59375 20.546875 3.101562 21.605469 2.664062 C 22.667969 2.226562 23.746094 1.839844 24.839844 1.507812 C 25.9375 1.175781 27.050781 0.894531 28.171875 0.671875 C 29.296875 0.449219 30.429688 0.28125 31.570312 0.167969 C 32.710938 0.0546875 33.855469 0 35 0 C 36.148438 0 37.292969 0.0546875 38.433594 0.167969 C 39.574219 0.28125 40.707031 0.449219 41.832031 0.671875 C 42.953125 0.894531 44.066406 1.175781 45.164062 1.507812 C 46.257812 1.839844 47.335938 2.226562 48.394531 2.664062 C 49.457031 3.101562 50.492188 3.59375 51.5 4.132812 C 52.511719 4.671875 53.496094 5.261719 54.449219 5.898438 C 55.402344 6.535156 56.320312 7.21875 57.207031 7.945312 C 58.09375 8.671875 58.941406 9.441406 59.75 10.25 C 60.5625 11.0625 61.332031 11.910156 62.058594 12.796875 C 62.785156 13.683594 63.46875 14.601562 64.105469 15.554688 C 64.742188 16.507812 65.332031 17.492188 65.871094 18.503906 C 66.410156 19.511719 66.902344 20.546875 67.339844 21.605469 C 67.777344 22.667969 68.164062 23.746094 68.496094 24.839844 C 68.828125 25.9375 69.105469 27.050781 69.332031 28.171875 C 69.554688 29.296875 69.722656 30.429688 69.835938 31.570312 C 69.949219 32.710938 70.003906 33.855469 70.003906 35 Z M 70.003906 35 "/></clipPath><linearGradient x1="0.0499019" gradientTransform="matrix(0.228024,0,0,0.228024,0.0000005,0.000000992958)" y1="307.049891" x2="307.050605" gradientUnits="userSpaceOnUse" y2="0.0506" id="c09a714fe9"><stop style="stop-color:#fec053;stop-opacity:1;" offset="0"/><stop style="stop-color:#fec053;stop-opacity:1;" offset="0.125"/><stop style="stop-color:#fec053;stop-opacity:1;" offset="0.140625"/><stop style="stop-color:#fec053;stop-opacity:1;" offset="0.144531"/><stop style="stop-color:#febf53;stop-opacity:1;" offset="0.148438"/><stop style="stop-color:#febd52;stop-opacity:1;" offset="0.152344"/><stop style="stop-color:#febb52;stop-opacity:1;" offset="0.15625"/><stop style="stop-color:#fdb952;stop-opacity:1;" offset="0.160156"/><stop style="stop-color:#fdb852;stop-opacity:1;" offset="0.164063"/><stop style="stop-color:#fdb652;stop-opacity:1;" offset="0.167969"/><stop style="stop-color:#fdb451;stop-opacity:1;" offset="0.171875"/><stop style="stop-color:#fdb251;stop-opacity:1;" offset="0.175781"/><stop style="stop-color:#fdb051;stop-opacity:1;" offset="0.179688"/><stop style="stop-color:#fdae51;stop-opacity:1;" offset="0.183594"/><stop style="stop-color:#fcac50;stop-opacity:1;" offset="0.1875"/><stop style="stop-color:#fcaa50;stop-opacity:1;" offset="0.191406"/><stop style="stop-color:#fca950;stop-opacity:1;" offset="0.195312"/><stop style="stop-color:#fca750;stop-opacity:1;" offset="0.199219"/><stop style="stop-color:#fca54f;stop-opacity:1;" offset="0.203125"/><stop style="stop-color:#fca34f;stop-opacity:1;" offset="0.207031"/><stop style="stop-color:#fca14f;stop-opacity:1;" offset="0.210938"/><stop style="stop-color:#fc9f4f;stop-opacity:1;" offset="0.214844"/><stop style="stop-color:#fb9d4e;stop-opacity:1;" offset="0.21875"/><stop style="stop-color:#fb9b4e;stop-opacity:1;" offset="0.222656"/><stop style="stop-color:#fb9a4e;stop-opacity:1;" offset="0.226563"/><stop style="stop-color:#fb984e;stop-opacity:1;" offset="0.230469"/><stop style="stop-color:#fb964d;stop-opacity:1;" offset="0.234375"/><stop style="stop-color:#fb944d;stop-opacity:1;" offset="0.238281"/><stop style="stop-color:#fb924d;stop-opacity:1;" offset="0.242188"/><stop style="stop-color:#fa904d;stop-opacity:1;" offset="0.246094"/><stop style="stop-color:#fa8e4c;stop-opacity:1;" offset="0.25"/><stop style="stop-color:#fa8c4c;stop-opacity:1;" offset="0.253906"/><stop style="stop-color:#fa8b4c;stop-opacity:1;" offset="0.257813"/><stop style="stop-color:#fa894c;stop-opacity:1;" offset="0.261719"/><stop style="stop-color:#fa874b;stop-opacity:1;" offset="0.265625"/><stop style="stop-color:#fa854b;stop-opacity:1;" offset="0.269531"/><stop style="stop-color:#f9834b;stop-opacity:1;" offset="0.273438"/><stop style="stop-color:#f9814b;stop-opacity:1;" offset="0.277344"/><stop style="stop-color:#f97f4a;stop-opacity:1;" offset="0.28125"/><stop style="stop-color:#f97d4a;stop-opacity:1;" offset="0.285156"/><stop style="stop-color:#f97c4a;stop-opacity:1;" offset="0.289063"/><stop style="stop-color:#f97a4a;stop-opacity:1;" offset="0.292969"/><stop style="stop-color:#f97849;stop-opacity:1;" offset="0.296875"/><stop style="stop-color:#f87649;stop-opacity:1;" offset="0.300781"/><stop style="stop-color:#f87449;stop-opacity:1;" offset="0.304688"/><stop style="stop-color:#f87249;stop-opacity:1;" offset="0.308594"/><stop style="stop-color:#f87048;stop-opacity:1;" offset="0.3125"/><stop style="stop-color:#f86e48;stop-opacity:1;" offset="0.316406"/><stop style="stop-color:#f86d48;stop-opacity:1;" offset="0.320313"/><stop style="stop-color:#f86b48;stop-opacity:1;" offset="0.324219"/><stop style="stop-color:#f76947;stop-opacity:1;" offset="0.328125"/><stop style="stop-color:#f76747;stop-opacity:1;" offset="0.332031"/><stop style="stop-color:#f76547;stop-opacity:1;" offset="0.335938"/><stop style="stop-color:#f76347;stop-opacity:1;" offset="0.339844"/><stop style="stop-color:#f76147;stop-opacity:1;" offset="0.34375"/><stop style="stop-color:#f75f46;stop-opacity:1;" offset="0.347656"/><stop style="stop-color:#f75e46;stop-opacity:1;" offset="0.351563"/><stop style="stop-color:#f65c46;stop-opacity:1;" offset="0.355469"/><stop style="stop-color:#f65a46;stop-opacity:1;" offset="0.359375"/><stop style="stop-color:#f65845;stop-opacity:1;" offset="0.363281"/><stop style="stop-color:#f65645;stop-opacity:1;" offset="0.367188"/><stop style="stop-color:#f65445;stop-opacity:1;" offset="0.371094"/><stop style="stop-color:#f65245;stop-opacity:1;" offset="0.375"/><stop style="stop-color:#f65044;stop-opacity:1;" offset="0.378906"/><stop style="stop-color:#f54e44;stop-opacity:1;" offset="0.382813"/><stop style="stop-color:#f54d44;stop-opacity:1;" offset="0.386719"/><stop style="stop-color:#f54b44;stop-opacity:1;" offset="0.390625"/><stop style="stop-color:#f54943;stop-opacity:1;" offset="0.394531"/><stop style="stop-color:#f54743;stop-opacity:1;" offset="0.398438"/><stop style="stop-color:#f54543;stop-opacity:1;" offset="0.402344"/><stop style="stop-color:#f54343;stop-opacity:1;" offset="0.40625"/><stop style="stop-color:#f44142;stop-opacity:1;" offset="0.410156"/><stop style="stop-color:#f43f42;stop-opacity:1;" offset="0.414063"/><stop style="stop-color:#f43e42;stop-opacity:1;" offset="0.417969"/><stop style="stop-color:#f43c42;stop-opacity:1;" offset="0.421875"/><stop style="stop-color:#f43a41;stop-opacity:1;" offset="0.425781"/><stop style="stop-color:#f43841;stop-opacity:1;" offset="0.429688"/><stop style="stop-color:#f43641;stop-opacity:1;" offset="0.433594"/><stop style="stop-color:#f43441;stop-opacity:1;" offset="0.4375"/><stop style="stop-color:#f33240;stop-opacity:1;" offset="0.441406"/><stop style="stop-color:#f33040;stop-opacity:1;" offset="0.445313"/><stop style="stop-color:#f32f40;stop-opacity:1;" offset="0.449219"/><stop style="stop-color:#f32d40;stop-opacity:1;" offset="0.453125"/><stop style="stop-color:#f32b3f;stop-opacity:1;" offset="0.457031"/><stop style="stop-color:#f3293f;stop-opacity:1;" offset="0.460938"/><stop style="stop-color:#f3273f;stop-opacity:1;" offset="0.464844"/><stop style="stop-color:#f2253f;stop-opacity:1;" offset="0.46875"/><stop style="stop-color:#f2233e;stop-opacity:1;" offset="0.472656"/><stop style="stop-color:#f2213e;stop-opacity:1;" offset="0.476563"/><stop style="stop-color:#f1213f;stop-opacity:1;" offset="0.480469"/><stop style="stop-color:#f02041;stop-opacity:1;" offset="0.484375"/><stop style="stop-color:#ef2043;stop-opacity:1;" offset="0.488281"/><stop style="stop-color:#ee2046;stop-opacity:1;" offset="0.492188"/><stop style="stop-color:#ec2048;stop-opacity:1;" offset="0.496094"/><stop style="stop-color:#eb204a;stop-opacity:1;" offset="0.5"/><stop style="stop-color:#ea204d;stop-opacity:1;" offset="0.503906"/><stop style="stop-color:#e8204f;stop-opacity:1;" offset="0.507813"/><stop style="stop-color:#e72052;stop-opacity:1;" offset="0.511719"/><stop style="stop-color:#e62054;stop-opacity:1;" offset="0.515625"/><stop style="stop-color:#e42057;stop-opacity:1;" offset="0.519531"/><stop style="stop-color:#e32059;stop-opacity:1;" offset="0.523438"/><stop style="stop-color:#e2205b;stop-opacity:1;" offset="0.527344"/><stop style="stop-color:#e0205e;stop-opacity:1;" offset="0.53125"/><stop style="stop-color:#df2060;stop-opacity:1;" offset="0.535156"/><stop style="stop-color:#de2063;stop-opacity:1;" offset="0.539063"/><stop style="stop-color:#dc2065;stop-opacity:1;" offset="0.542969"/><stop style="stop-color:#db2068;stop-opacity:1;" offset="0.546875"/><stop style="stop-color:#d9206a;stop-opacity:1;" offset="0.550781"/><stop style="stop-color:#d8206d;stop-opacity:1;" offset="0.554688"/><stop style="stop-color:#d7206f;stop-opacity:1;" offset="0.558594"/><stop style="stop-color:#d52071;stop-opacity:1;" offset="0.5625"/><stop style="stop-color:#d41f74;stop-opacity:1;" offset="0.566406"/><stop style="stop-color:#d31f76;stop-opacity:1;" offset="0.570312"/><stop style="stop-color:#d11f79;stop-opacity:1;" offset="0.574219"/><stop style="stop-color:#d01f7b;stop-opacity:1;" offset="0.578125"/><stop style="stop-color:#cf1f7e;stop-opacity:1;" offset="0.582031"/><stop style="stop-color:#cd1f80;stop-opacity:1;" offset="0.585938"/><stop style="stop-color:#cc1f82;stop-opacity:1;" offset="0.589844"/><stop style="stop-color:#cb1f85;stop-opacity:1;" offset="0.59375"/><stop style="stop-color:#c91f87;stop-opacity:1;" offset="0.597656"/><stop style="stop-color:#c81f8a;stop-opacity:1;" offset="0.601562"/><stop style="stop-color:#c71f8c;stop-opacity:1;" offset="0.605469"/><stop style="stop-color:#c51f8f;stop-opacity:1;" offset="0.609375"/><stop style="stop-color:#c41f91;stop-opacity:1;" offset="0.613281"/><stop style="stop-color:#c31f93;stop-opacity:1;" offset="0.617188"/><stop style="stop-color:#c11f96;stop-opacity:1;" offset="0.621094"/><stop style="stop-color:#c01f98;stop-opacity:1;" offset="0.625"/><stop style="stop-color:#be1f9b;stop-opacity:1;" offset="0.628906"/><stop style="stop-color:#bd1f9d;stop-opacity:1;" offset="0.632813"/><stop style="stop-color:#bc1fa0;stop-opacity:1;" offset="0.636719"/><stop style="stop-color:#ba1fa2;stop-opacity:1;" offset="0.640625"/><stop style="stop-color:#b91fa4;stop-opacity:1;" offset="0.644531"/><stop style="stop-color:#b81fa7;stop-opacity:1;" offset="0.648438"/><stop style="stop-color:#b620a8;stop-opacity:1;" offset="0.652344"/><stop style="stop-color:#b421a9;stop-opacity:1;" offset="0.65625"/><stop style="stop-color:#b222aa;stop-opacity:1;" offset="0.660156"/><stop style="stop-color:#b023ab;stop-opacity:1;" offset="0.664063"/><stop style="stop-color:#ae23ac;stop-opacity:1;" offset="0.667969"/><stop style="stop-color:#ac24ad;stop-opacity:1;" offset="0.671875"/><stop style="stop-color:#aa25ae;stop-opacity:1;" offset="0.675781"/><stop style="stop-color:#a926af;stop-opacity:1;" offset="0.679688"/><stop style="stop-color:#a727b0;stop-opacity:1;" offset="0.683594"/><stop style="stop-color:#a528b0;stop-opacity:1;" offset="0.6875"/><stop style="stop-color:#a329b1;stop-opacity:1;" offset="0.691406"/><stop style="stop-color:#a12ab2;stop-opacity:1;" offset="0.695312"/><stop style="stop-color:#9f2bb3;stop-opacity:1;" offset="0.699219"/><stop style="stop-color:#9d2cb4;stop-opacity:1;" offset="0.703125"/><stop style="stop-color:#9b2db5;stop-opacity:1;" offset="0.707031"/><stop style="stop-color:#992eb6;stop-opacity:1;" offset="0.710938"/><stop style="stop-color:#972fb7;stop-opacity:1;" offset="0.714844"/><stop style="stop-color:#9530b8;stop-opacity:1;" offset="0.71875"/><stop style="stop-color:#9331b8;stop-opacity:1;" offset="0.722656"/><stop style="stop-color:#9132b9;stop-opacity:1;" offset="0.726562"/><stop style="stop-color:#8f33ba;stop-opacity:1;" offset="0.730469"/><stop style="stop-color:#8e34bb;stop-opacity:1;" offset="0.734375"/><stop style="stop-color:#8c35bc;stop-opacity:1;" offset="0.738281"/><stop style="stop-color:#8a36bd;stop-opacity:1;" offset="0.742188"/><stop style="stop-color:#8837be;stop-opacity:1;" offset="0.746094"/><stop style="stop-color:#8638bf;stop-opacity:1;" offset="0.75"/><stop style="stop-color:#8439bf;stop-opacity:1;" offset="0.753906"/><stop style="stop-color:#823ac0;stop-opacity:1;" offset="0.757812"/><stop style="stop-color:#803bc1;stop-opacity:1;" offset="0.761719"/><stop style="stop-color:#7e3cc2;stop-opacity:1;" offset="0.765625"/><stop style="stop-color:#7c3cc3;stop-opacity:1;" offset="0.769531"/><stop style="stop-color:#7a3dc4;stop-opacity:1;" offset="0.773438"/><stop style="stop-color:#783ec5;stop-opacity:1;" offset="0.777344"/><stop style="stop-color:#763fc6;stop-opacity:1;" offset="0.78125"/><stop style="stop-color:#7440c7;stop-opacity:1;" offset="0.785156"/><stop style="stop-color:#7341c7;stop-opacity:1;" offset="0.789062"/><stop style="stop-color:#7142c8;stop-opacity:1;" offset="0.792969"/><stop style="stop-color:#6f43c9;stop-opacity:1;" offset="0.796875"/><stop style="stop-color:#6d44ca;stop-opacity:1;" offset="0.800781"/><stop style="stop-color:#6b45cb;stop-opacity:1;" offset="0.804688"/><stop style="stop-color:#6946cc;stop-opacity:1;" offset="0.808594"/><stop style="stop-color:#6747cd;stop-opacity:1;" offset="0.8125"/><stop style="stop-color:#6548ce;stop-opacity:1;" offset="0.816406"/><stop style="stop-color:#6349cf;stop-opacity:1;" offset="0.820313"/><stop style="stop-color:#614acf;stop-opacity:1;" offset="0.824219"/><stop style="stop-color:#5f4bd0;stop-opacity:1;" offset="0.828125"/><stop style="stop-color:#5d4cd1;stop-opacity:1;" offset="0.832031"/><stop style="stop-color:#5b4dd2;stop-opacity:1;" offset="0.835938"/><stop style="stop-color:#594ed3;stop-opacity:1;" offset="0.839844"/><stop style="stop-color:#574fd4;stop-opacity:1;" offset="0.84375"/><stop style="stop-color:#5650d5;stop-opacity:1;" offset="0.847656"/><stop style="stop-color:#5451d6;stop-opacity:1;" offset="0.851563"/><stop style="stop-color:#5351d6;stop-opacity:1;" offset="0.859375"/><stop style="stop-color:#5351d6;stop-opacity:1;" offset="0.875"/><stop style="stop-color:#5351d6;stop-opacity:1;" offset="1"/></linearGradient></defs><g id="3d0ccc73e2"><g clip-rule="nonzero" clip-path="url(#d8c5ad8df2)"><path style=" stroke:none;fill-rule:nonzero;fill:#ffffff;fill-opacity:0;" d="M 0 0 L 70.003906 0 L 70.003906 70.003906 L 0 70.003906 Z M 0 0 "/><path style=" stroke:none;fill-rule:nonzero;fill:#ffffff;fill-opacity:0;" d="M 0 0 L 70.003906 0 L 70.003906 70.003906 L 0 70.003906 Z M 0 0 "/></g><g clip-rule="nonzero" clip-path="url(#ab8a62e249)"><g clip-rule="nonzero" clip-path="url(#406a3bbb07)"><path style=" stroke:none;fill-rule:nonzero;fill:url(#c09a714fe9);" d="M 0 0 L 0 70.003906 L 70.003906 70.003906 L 70.003906 0 Z M 0 0 "/></g></g><path style=" stroke:none;fill-rule:nonzero;fill:#ffffff;fill-opacity:1;" d="M 44.394531 56.125 L 25.734375 56.125 C 19.261719 56.125 14 50.863281 14 44.394531 L 14 25.734375 C 14 19.261719 19.261719 14 25.734375 14 L 44.394531 14 C 50.863281 14 56.125 19.261719 56.125 25.734375 L 56.125 44.394531 C 56.125 50.863281 50.863281 56.125 44.394531 56.125 Z M 25.734375 16.851562 C 20.835938 16.851562 16.851562 20.835938 16.851562 25.734375 L 16.851562 44.394531 C 16.851562 49.289062 20.835938 53.273438 25.734375 53.273438 L 44.394531 53.273438 C 49.289062 53.273438 53.273438 49.289062 53.273438 44.394531 L 53.273438 25.734375 C 53.273438 20.835938 49.289062 16.851562 44.394531 16.851562 Z M 25.734375 16.851562 "/><path style=" stroke:none;fill-rule:nonzero;fill:#ffffff;fill-opacity:1;" d="M 35.0625 45.496094 C 29.3125 45.496094 24.628906 40.816406 24.628906 35.0625 C 24.628906 29.3125 29.3125 24.628906 35.0625 24.628906 C 40.816406 24.628906 45.496094 29.3125 45.496094 35.0625 C 45.496094 40.816406 40.816406 45.496094 35.0625 45.496094 Z M 35.0625 27.480469 C 30.882812 27.480469 27.480469 30.882812 27.480469 35.0625 C 27.480469 39.242188 30.882812 42.644531 35.0625 42.644531 C 39.242188 42.644531 42.644531 39.242188 42.644531 35.0625 C 42.644531 30.882812 39.246094 27.480469 35.0625 27.480469 Z M 35.0625 27.480469 "/></g></svg>
